<svg xmlns="http://www.w3.org/2000/svg" viewBox="0 0 1165.76 617.94"><defs><style>.cls-1{fill:#b9a25f;}</style></defs><title>Asset 1</title><g id="Layer_2" data-name="Layer 2"><g id="Layer_1-2" data-name="Layer 1"><path class="cls-1" d="M970.29,266.19c42.33,0,84.66-.06,127,.09,4.36,0,6-.84,5.94-5.67q-.43-29.75,0-59.49c.06-4.52-1.3-5.49-5.62-5.48q-107.73.2-215.47.08c-21.72,0-39.09-13.49-43.81-33.85A52.63,52.63,0,0,1,837,150q.06-52.24,0-104.49c0-26.38,19-45.33,45.46-45.34H1120c26.79,0,45.65,18.85,45.68,45.61,0,4.17-.2,8.35.06,12.49.23,3.58-1.16,4.57-4.59,4.53-13-.16-26-.07-39-.07q-108.24,0-216.47-.1c-4.67,0-6.25.93-6.18,5.93.31,19.83.25,39.66,0,59.49,0,4.23,1.25,5.24,5.34,5.23q107.73-.18,215.47-.08c21.44,0,38.42,12.67,43.81,32.61a45.44,45.44,0,0,1,1.54,11.85c0,35.49,0,71,0,106.48,0,25.43-19.2,44.6-44.65,44.62q-119.73.06-239.47,0c-25.16,0-44.27-19.16-44.47-44.3,0-4.33.25-8.69-.08-13s1.18-5.36,5.33-5.34c30.66.17,61.32.09,92,.09Z"/><path class="cls-1" d="M480.92,213.54c0,48.33-.1,96.65.15,145,0,5.32-1.55,6.4-6.37,6.09-7.79-.51-15.65.48-23.37-1.53-19-4.92-32.51-21.65-32.53-41.17q-.15-139.47,0-279C418.84,18.7,438.44.24,463.59.23q106.47-.08,213,0c11,0,22-.84,33,.54a42.68,42.68,0,0,1,37.42,42.05q.18,121.48,0,243a42.52,42.52,0,0,1-42.12,42.74c-49.82.46-99.64.14-149.47.15-1.89,0-3.69.21-3.59-2.68.28-7.66-.71-15.38.52-23,3.56-21.74,21.4-36.66,43.87-36.74q41.75-.17,83.48.07c4.06,0,5.3-.89,5.29-5.15q-.21-96.72,0-193.46c0-4.15-1-5.23-5.2-5.22q-97,.2-194,0c-4.05,0-4.9,1.21-4.89,5Q481,140.56,480.92,213.54Z"/><path class="cls-1" d="M266.11,195.86c0-42.49-.07-85,.1-127.47,0-4.6-1.23-5.79-5.81-5.78q-96,.22-192,0c-5,0-5.93,1.53-5.92,6.18q.21,126.72.1,253.44c0,6.55,0,6.64-6.43,6.52-6.15-.12-12.3.4-18.45-.54C15.86,324.81.16,307.33.12,285.1q-.22-121,0-241.94A43.24,43.24,0,0,1,43.35.21q121-.22,241.94,0a43.38,43.38,0,0,1,43.33,43.35q.21,121,0,241.94c0,23.7-19.27,42.76-42.95,43.24-5,.1-10-.15-15,.09-3.45.17-4.73-.93-4.63-4.5.22-8.16.07-16.32.07-24.49Z"/><path class="cls-1" d="M133.08,231c0-30.81.06-61.61-.08-92.41,0-3.92.73-5.58,5.14-5.52,17.48.25,35,.2,52.45,0,3.82,0,5.17.89,5.16,5q-.19,92.91,0,185.82c0,3.5-.56,5-4.56,4.95q-26.73-.35-53.45,0c-3.88,0-4.71-1.35-4.7-4.93C133.13,292.94,133.08,262,133.08,231Z"/><path class="cls-1" d="M50.29,507.34C55,489,59.54,471.76,63.68,454.45c1-4.07,2.61-5.23,6.66-5.07,8.49.33,17,.2,25.49.05,3-.05,4.35.48,4.32,4q-.25,38.73,0,77.47c0,3.11-.94,4.12-4,3.87-5-.4-11.36,2-14.5-.86s-1-9.42-1-14.34c-.13-16.49,0-33,0-49.58-1.78.35-1.49,1.88-1.77,3-4.11,16.12-8.27,32.23-12.21,48.39-.8,3.28-2,4.64-5.64,4.46-7.15-.35-14.34-.32-21.49,0-3.5.15-4.87-1-5.7-4.36-3.83-15.85-7.94-31.63-12-47.43a9,9,0,0,0-2-4.15v5c0,18.49-.09,37,.09,55.47,0,3.54-1,4.68-4.47,4.41a78.69,78.69,0,0,0-11.49,0c-3.19.22-3.89-1.06-3.87-4q.14-38.73,0-77.47c0-3.1.94-4,4-3.93,8.49.18,17,.36,25.48-.06,4.51-.22,6.3,1.15,7.33,5.57,3.76,16,8,32,12,47.93C49.17,504,49.57,505,50.29,507.34Z"/><path class="cls-1" d="M1045.9,515.1c0-20,.19-39.93-.14-59.88-.09-5,1.45-6.34,6.1-5.81a53.66,53.66,0,0,0,10,0c3.19-.24,3.86,1.06,3.85,4q-.17,38.73,0,77.44c0,3.07-.89,4-4,3.94-8.49-.19-17-.25-25.47,0-3.41.12-4.94-1-6.12-4.15-7.24-19.66-14.71-39.24-22.12-58.84a6.8,6.8,0,0,0-2-3.06c-.07,1.35-.2,2.7-.2,4.06,0,19.15-.08,38.3.06,57.45,0,3.37-.69,4.82-4.35,4.53a101.86,101.86,0,0,0-12,0c-2.51.1-3.52-.61-3.51-3.33q.12-39.48,0-78.94c0-2.51,1-3.1,3.24-3.09,9.33.07,18.66.19,28-.05,3.35-.09,3.7,2.15,4.49,4.25q11,29.16,22,58.34c.4,1.06.85,2.1,1.27,3.15Z"/><path class="cls-1" d="M461.84,507.47l9.85,13.47,10.06,13.81c-8.17,0-15.38,0-22.58,0-1.8,0-2.32-1.71-3.14-2.9-4-5.9-8.4-11.63-11.95-17.83-2.75-4.81-6.15-6.51-11.61-6.09-7.56.59-6.48-1-6.56,6.74-.06,5.66-.1,11.33,0,17,.06,2.35-.68,3.46-3.11,3.15-.33,0-.67,0-1,0-5-.11-11.45,1.64-14.51-.84-3.25-2.63-1-9.38-1-14.31-.12-21.82,0-43.64-.14-65.45,0-3.69.83-4.84,4.67-4.78,14.31.24,28.64,0,43,.11,16.44.12,24.15,7.76,24.52,24.16.1,4.15.08,8.33-.12,12.48C477.69,496.64,473.18,504.28,461.84,507.47ZM441,489v.33h4.49c13.38,0,14.33-1,13.23-14.54,0-.16,0-.33,0-.5-.22-4.25-2.43-6.25-6.72-6.2-6.65.07-13.33.39-19.94-.11-5.1-.38-6.84,1.18-6.17,6.24.64,4.88-2.07,11.52,1.14,14.28C429.75,490.89,436.17,489,441,489Z"/><path class="cls-1" d="M813.16,534.77c-6.49,0-12.82-.13-19.15.07a5.79,5.79,0,0,1-5.68-3c-3.78-5.89-8.22-11.38-11.59-17.47-2.91-5.27-6.65-6.73-12.44-6.53-4.63.17-6.51,1-6.08,6,.49,5.62,0,11.32.16,17,.09,2.89-.56,4.28-3.84,4.05a110.72,110.72,0,0,0-12.49,0c-2.67.12-3.37-.88-3.37-3.44q.12-39.24,0-78.48c0-2.6.67-3.49,3.34-3.46,15.49.12,31-.23,46.48.21,14.37.4,21.92,8.43,22.18,22.83.1,6.15.58,12.32-.67,18.44-1.5,7.41-5.35,12.93-12.65,15.4-2.9,1-2.72,1.85-1.14,4,5.76,7.75,11.36,15.61,17,23.44C813.29,533.84,813.21,534,813.16,534.77Zm-40-66.63v0c-3.82,0-7.65.14-11.47,0-2.58-.13-3.57.73-3.49,3.36.14,4.82.19,9.66,0,14.47-.13,3,1.15,3.65,3.83,3.56,5-.16,10,0,15,0,14.44,0,15.57-1.34,13.94-15.78-.42-3.64-2.24-5.42-5.78-5.48C781.17,468.09,777.17,468.14,773.18,468.14Z"/><path class="cls-1" d="M302.73,491.71c0-6.83-.12-13.67,0-20.5.3-14.38,7.9-22.42,22.17-22.92,10.49-.36,21-.36,31.49,0,14.06.49,21.87,8.32,22.2,22.42.33,14.33.36,28.67,0,43s-8.69,22-22.92,22.17q-15,.18-30,0c-14.46-.19-22.56-8.22-22.9-22.68C302.6,506.05,302.73,498.88,302.73,491.71Zm56.2.56V473.33c0-4.26-2-6.43-6.4-6.39-8,.09-15.95.07-23.93,0-3.83,0-6,1.68-6.12,5.57-.43,13.12-.49,26.23,0,39.35.15,3.65,2.13,5.33,5.79,5.31,8.14-.05,16.28-.08,24.42,0,4.2,0,6.16-1.94,6.19-6C358.94,504.9,358.92,498.59,358.93,492.27Z"/><path class="cls-1" d="M1092.68,491.86c0-7-.15-14,0-21,.36-14,7.57-21.93,21.45-22.49,14.13-.57,28.31-.12,42.47-.23,2.49,0,3.18,1,3,3.29-.32,5,2,11.24-.85,14.52s-9.1.85-13.85,1c-8.49.19-17,.21-25.49,0-4.85-.12-7.22,1.93-7.23,6.67q0,18.75.06,37.48c0,4.24,2.17,6.29,6.6,6.17,6.5-.17,13,0,19.49-.05,6.1,0,7.25-1.22,7.48-7.29.26-7,.26-7-6.63-7-6.54,0-6.54,0-6.54-6.64,0-12.1,0-12.1,12.12-12.1,5.83,0,11.66,0,17.49,0,1.76,0,3.39-.07,3.32,2.47-.3,10.15.76,20.34-.58,30.44-1.55,11.6-8.74,18.31-20.38,18.73-10.48.37-21,.41-31.47,0-12.12-.52-19.57-8.3-20.43-20.4,0-.66-.09-1.33-.09-2Q1092.68,502.61,1092.68,491.86Z"/><path class="cls-1" d="M672.69,449.48c4.26.43,10.59-2.09,14.18.94,3.29,2.78,3.78,8.94,5.39,13.65,7.58,22,15,44.09,22.74,66.07,1.32,3.79.9,5.28-3.3,4.64a12.5,12.5,0,0,0-1.5,0c-5-.08-10.94,1.47-14.69-.72s-3.55-8.58-5-13.16c-.79-2.5-2-3.28-4.63-3.24q-13.74.23-27.49,0c-2.61,0-4.11.69-4.55,3.32a8.12,8.12,0,0,1-.62,1.9c-1.72,3.87-1.06,10.35-4.78,11.38-5.89,1.64-12.57.79-18.87.35-2.93-.2-.71-2.71-.35-3.79,6.26-18.61,12.67-37.17,19-55.74,2.44-7.08,5.11-14.09,7.22-21.26,1-3.57,2.83-4.7,6.36-4.39C665.15,449.71,668.51,449.48,672.69,449.48ZM661,499c7,0,13.34-.05,19.63,0,2.13,0,2.6-.74,2-2.67-2.83-8.66-5.61-17.33-8.41-26-.36-1.11-.59-2.34-2.19-2.2-1.26.12-1.54,1.19-1.83,2.09C667.16,479.5,664.22,488.79,661,499Z"/><path class="cls-1" d="M166.64,449.88c5,0,11.19-1.82,14.54.51s3.94,8.77,5.56,13.46c7.65,22.18,15.19,44.4,22.9,66.56,1.12,3.23,1.18,4.76-3,4.44a125.55,125.55,0,0,0-14,0c-2.39.09-3.86-.55-4.2-3a2.92,2.92,0,0,0-.18-.46c-1.53-4.39-1.85-10.24-4.91-12.76-3.33-2.76-9.27-.7-14.07-.82-5.33-.14-10.67.18-16-.11-3.14-.17-4.35,1.07-5.19,3.89-1.32,4.43-1.39,11.34-4.86,12.55-5.65,2-12.48.84-18.79.59-3.1-.11-1.21-2.38-.79-3.63,3.61-10.72,7.3-21.42,11-32.12,5.07-14.8,10.27-29.56,15.11-44.43,1.21-3.74,2.69-5.62,6.9-5.08,3.28.42,6.65.08,10,.08Zm11.18,48.94-9.07-28.45c-.36-1.11-.66-2.32-2.21-2.26-.95.05-1.42.71-1.69,1.56l-9.31,29.15Z"/><path class="cls-1" d="M613.93,164.25c0,9-.13,18,.07,26.95.07,3.34-.71,4.65-4.36,4.62-18-.18-35.94-.14-53.91,0-3,0-4-.79-4-3.92q.19-27.45,0-54.9c0-3.23,1.21-3.86,4.1-3.85q26.94.15,53.9,0c3.16,0,4.38.76,4.29,4.18C613.77,146.28,613.93,155.27,613.93,164.25Z"/><path class="cls-1" d="M535.59,492.12c0-12.82.1-25.64-.07-38.45,0-3.2.73-4.31,4.1-4.26,14.65.18,29.3-.08,43.94.12,16,.22,23.79,8.14,24,24.16.08,5.81.46,11.64-.46,17.44-1.86,11.78-9,18.36-20.92,18.74-9,.29-18,.24-27,0-3.26-.07-4.39.79-4.24,4.14.26,5.48-.07,11,.13,16.47.11,3-.47,4.67-4,4.32-4.94-.48-11.35,2-14.48-.9s-.89-9.43-1-14.35C535.46,510.43,535.59,501.27,535.59,492.12Zm34.24-.84h2.5c16.33,0,17-.86,15.52-17.16-.38-4.08-2.35-6-6.37-6-7.81,0-15.62.08-23.43-.05-2.54-.05-3.06,1.06-3,3.28.1,5.48.19,11,0,16.45-.12,3.05,1.24,3.63,3.86,3.52C562.52,491.17,566.18,491.28,569.83,491.28Z"/><path class="cls-1" d="M913.85,449.48c-2.34,2.87-4,4.87-5.62,6.86-8.67,10.54-17.24,21.17-26.09,31.56-2.21,2.59-2,4.07.1,6.57,10,11.83,19.75,23.84,29.54,35.83,1,1.21,2.54,2.15,2.67,4.47-7.51,0-14.93-.06-22.35,0-2.3,0-3.1-1.67-4.19-3.06-7.29-9.3-14.53-18.64-21.81-27.95-1.09-1.4-1.94-2.93-4.22-3-3.3-.14-5.16.2-5,4.41.38,8.64,0,17.31.17,26,.06,2.84-.79,3.84-3.66,3.68a86.23,86.23,0,0,0-11.48,0c-3.49.26-4.5-.91-4.47-4.42.18-17.48.08-35,.08-52.45,0-8.15.11-16.31,0-24.47-.06-2.87.46-4.31,3.77-4.09a110.54,110.54,0,0,0,12.48,0c2.7-.12,3.38.9,3.33,3.48-.15,8.15-.13,16.31,0,24.47,0,1.57-1.27,4.06,1.45,4.58,2.39.46,4.67.4,6.57-2.15,6.57-8.8,13.57-17.28,20.13-26.09,2.31-3.09,4.69-4.56,8.66-4.33C900.15,449.75,906.43,449.48,913.85,449.48Z"/><path class="cls-1" d="M276.84,484c0,9.33.07,18.66,0,28-.16,15.67-8.22,23.76-23.76,23.89-7.83.07-15.67-.08-23.5.07-2.72.06-3.91-.59-3.73-3.57.29-4.81-1.58-11,.79-14.09,2.52-3.27,9-.75,13.8-1.1,1.49-.11,3,0,4.5,0,11,0,12.23-1.3,12.22-12.49,0-16.33.14-32.67-.2-49-.1-4.86.85-7.08,6.15-6.3,4.41.65,10.37-1.84,12.94,1,2.19,2.45.7,8.25.73,12.57.05,7,0,14,0,21Z"/><path class="cls-1" d="M957.14,491.94c0,12.84-.13,25.67.08,38.5.06,3.56-1.06,4.69-4.51,4.38-4.78-.43-11,1.93-14-.86s-.93-9.12-1-13.87c-.12-22,0-44-.15-66,0-3.85,1.09-4.92,4.75-4.61a68.35,68.35,0,0,0,11,0c3.17-.23,3.92.93,3.88,4C957.05,466.28,957.14,479.11,957.14,491.94Z"/><path class="cls-1" d="M917.67,605.92c0-9.11.18-18.23-.09-27.33-.1-3.74,1.36-4.52,4.66-4.36,3,.16,5.49-.2,5.39,4.26-.27,11.49-.2,23,0,34.48.06,3.38-1.16,4.13-4.34,4.14-12.87.07-12.86.18-17.31-11.76a156.51,156.51,0,0,0-8.33-19.47c0,8.62-.2,17.24.09,25.85.13,4-.76,5.53-5.12,5.47-4-.06-5-1.23-5-5.1.25-11,.23-22,0-33-.07-3.56.65-5,4.6-4.92,12.21.09,12.23-.09,16.63,11.38,2.62,6.81,5.17,13.65,7.75,20.47Z"/><path class="cls-1" d="M275.77,595.67c0,3.66.14,7.33,0,11-.3,6.86-4.14,10.83-11,11.11-5.32.21-10.66.21-16,0-6.84-.28-10.78-4.27-10.94-11.07-.17-7.15-.17-14.32,0-21.47s4-11.08,11.17-11.26c5.32-.14,10.66-.16,16,0,6.54.22,10.46,4.17,10.74,10.71C275.89,588.34,275.77,592,275.77,595.67Zm-28.07.27c0,12.38,0,12.38,12.36,12.27.66,0,1.33,0,2,0,2.75.12,3.89-1.24,3.87-3.92-.05-5.65-.06-11.29,0-16.94,0-2.6-1-3.89-3.71-4.23-13.58-1.69-14.51-1-14.51,12.34Z"/><path class="cls-1" d="M809.9,595.87c0,3.66.12,7.32,0,11-.26,6.4-3.8,10.43-10.11,10.83a147.4,147.4,0,0,1-17.46,0c-6.06-.33-10-4.15-10.24-10.22-.33-7.8-.37-15.65,0-23.45.31-6.3,4.46-9.89,10.85-10.06,5.49-.15,11-.18,16.47,0,6.39.24,10.14,4,10.45,10.4C810,588.2,809.89,592,809.9,595.87Zm-9.87-.13c0-2.49-.17-5,0-7.47.53-6.46-4.09-5.1-7.69-5.13-10.41-.06-10.46,0-10.54,5.4-.07,4.65.2,9.31-.08,13.94-.26,4.27,1.18,5.85,5.63,5.82C800,608.22,800,608.39,800,595.74Z"/><path class="cls-1" d="M459.35,591.07c0-4.33.21-8.67-.06-13s2.53-3.76,5.21-3.81,5.25-.21,5.11,4c-.26,7.82.16,15.67-.17,23.48-.2,4.84,1.05,7.38,6.33,6.5a14.88,14.88,0,0,1,2.5,0c8.51,0,8.69-.3,8.39-9.06-.23-7,0-14-.36-21-.2-4.26,2.36-3.92,5.13-3.9s5.3-.37,5.19,3.89c-.24,9.16.08,18.33-.13,27.48-.19,8.26-4.29,12.05-12.59,12.15-4.33.05-8.66.11-13,0-6.85-.21-10.64-3.47-11.17-10.24-.42-5.46-.08-11-.08-16.46Z"/><path class="cls-1" d="M141.2,617.81h-7.49c-5.42,0-7.12-2.43-5.61-7.68.58-2,2-1.92,3.51-1.92,5.16,0,10.32-.07,15.47,0,2.82,0,4.79-.3,4.83-3.94.05-3.85-2-4.37-5-4.26-3.49.12-7,.07-10.48-.06-4.53-.16-7.48-2.54-8.74-6.86a21.15,21.15,0,0,1,.4-13.25c1.4-3.91,4.58-5.7,8.51-5.84,6.31-.21,12.64,0,19-.16,4-.1,2.92,2.69,3,4.81.14,2.4.32,4.7-3.39,4.51-4.64-.24-9.31,0-14-.08-2.68,0-4.46.72-4.47,3.93s1.7,3.92,4.44,3.86c3.83-.08,7.66-.07,11.48.06,4.35.16,7.07,2.44,8.26,6.65a26.1,26.1,0,0,1,.8,7.91c-.25,9.08-3.5,12.27-12.53,12.3C146.53,617.82,143.87,617.81,141.2,617.81Z"/><path class="cls-1" d="M1018.41,617.81c-2.66,0-5.34-.17-8,.05-3.61.3-5.4-.49-5.37-4.77,0-4.08,1.4-5.19,5.23-5,4.64.29,9.31,0,14,.1,2.79,0,4.77-.19,4.77-3.9s-1.87-4.44-5-4.31c-3.32.13-6.66.08-10,0-5.16-.16-8.28-2.79-9.5-7.86a21.4,21.4,0,0,1,.49-11.8c1.32-4.1,4.46-6.21,8.66-6.33,6.31-.2,12.64,0,19-.16,4-.11,2.89,2.69,3,4.8.15,2.39.37,4.7-3.35,4.51-4.65-.23-9.32,0-14-.07-2.74,0-4.42.89-4.49,4-.07,3.26,1.76,3.88,4.47,3.81,3.49-.09,7-.09,10.48,0,5.66.16,8.64,2.62,9.65,8.13a29.24,29.24,0,0,1,0,10.43c-1,5.43-4,8-9.59,8.31-3.49.16-7,0-10.48,0Z"/><path class="cls-1" d="M590.1,574.31c5,0,10,.16,15,0,4.4-.19,3.56,2.75,3.69,5.34s0,4.28-3.56,4.36c-10.26.23-10.26.4-10.26,10.94,0,6.16-.24,12.33.09,18.47.21,4-2.12,3.79-4.71,3.66s-5.47,1-5.33-3.57c.25-8.48-.07-17,.14-25.46.08-3.32-1-4.56-4.27-4.16a27.08,27.08,0,0,1-3.49,0c-5.53,0-7-2.11-5.68-7.65.52-2.17,2-1.89,3.43-1.9C580.11,574.28,585.1,574.31,590.1,574.31Z"/><path class="cls-1" d="M353.77,595.55c0-5.49.21-11-.08-16.47-.19-3.63.74-5.11,4.64-4.87,3.32.2,5.67.12,5.46,4.71-.39,8.14,0,16.31-.18,24.46-.09,3.43.87,4.77,4.44,4.53,4.31-.29,8.67.14,13-.13s3.4,2.5,3.49,4.92.12,4.51-3.5,4.41c-8-.23-16-.17-24,0-2.74,0-3.37-1.09-3.32-3.56C353.85,607.54,353.77,601.55,353.77,595.55Z"/><path class="cls-1" d="M684.05,595.44c0-5.82.18-11.65,0-17.46-.17-4.43,2.79-3.57,5.35-3.69s4.76-.18,4.68,3.74q-.36,17.72,0,35.42c.09,4.56-2.81,3.46-5.28,3.59s-4.94.34-4.76-3.64C684.26,607.43,684.05,601.43,684.05,595.44Z"/></g></g></svg>